<mxfile host="app.diagrams.net" agent="Mozilla/5.0 (Windows NT 10.0; Win64; x64) AppleWebKit/537.36 (KHTML, like Gecko) Chrome/139.0.0.0 Safari/537.36" version="28.1.0">
  <diagram id="b075jWdiutvUjVPjj_Aq" name="PÃ¡gina-3">
    <mxGraphModel dx="1042" dy="535" grid="1" gridSize="10" guides="1" tooltips="1" connect="1" arrows="1" fold="1" page="1" pageScale="1" pageWidth="827" pageHeight="1169" math="0" shadow="0">
      <root>
        <mxCell id="0" />
        <mxCell id="1" parent="0" />
        <mxCell id="bFhDy0IqHS66P-8DGZtr-1" value="&lt;b&gt;NOTIFICATION SERVICE&lt;/b&gt;" style="rhombus;whiteSpace=wrap;html=1;fillColor=#dae8fc;strokeColor=#6c8ebf;rounded=1;" parent="1" vertex="1">
          <mxGeometry x="30" y="150" width="120" height="110" as="geometry" />
        </mxCell>
        <mxCell id="Z1ZksLU1EjWA5QroWrwy-1" value="&lt;b&gt;AUTH&amp;nbsp;&lt;/b&gt;&lt;div&gt;&lt;b&gt;SERVICE&lt;/b&gt;&lt;/div&gt;" style="rhombus;whiteSpace=wrap;html=1;fillColor=#fff2cc;strokeColor=#d6b656;rounded=1;" parent="1" vertex="1">
          <mxGeometry x="150" y="150" width="120" height="110" as="geometry" />
        </mxCell>
        <mxCell id="HK8e06Vi-B_-sVzk-9Mn-1" value="&lt;b&gt;USERS&lt;/b&gt;&lt;div&gt;&lt;b&gt;SERVICES&lt;/b&gt;&lt;/div&gt;" style="rhombus;whiteSpace=wrap;html=1;fillColor=#f8cecc;strokeColor=#b85450;rounded=1;" parent="1" vertex="1">
          <mxGeometry x="270" y="150" width="120" height="110" as="geometry" />
        </mxCell>
        <mxCell id="_2VN7EqtTFUMA6-nGAjz-1" value="&lt;b&gt;GIGS&lt;/b&gt;&lt;div&gt;&lt;b&gt;SERVICES&lt;/b&gt;&lt;/div&gt;" style="rhombus;whiteSpace=wrap;html=1;fillColor=#d5e8d4;strokeColor=#82b366;rounded=1;" parent="1" vertex="1">
          <mxGeometry x="390" y="150" width="120" height="110" as="geometry" />
        </mxCell>
        <mxCell id="EvPagf7T8r0iqqzLuyig-1" value="&lt;b&gt;CHAT&lt;/b&gt;&lt;div&gt;&lt;b&gt;SERVICES&lt;/b&gt;&lt;/div&gt;" style="rhombus;whiteSpace=wrap;html=1;fillColor=#b0e3e6;strokeColor=#0e8088;rounded=1;" parent="1" vertex="1">
          <mxGeometry x="510" y="150" width="120" height="110" as="geometry" />
        </mxCell>
        <mxCell id="63H-f-_gt8hNaMjKCWGA-1" value="&lt;b&gt;ORDER&lt;/b&gt;&lt;div&gt;&lt;b&gt;SERVICES&lt;/b&gt;&lt;/div&gt;" style="rhombus;whiteSpace=wrap;html=1;fillColor=#fad7ac;strokeColor=#b46504;rounded=1;" parent="1" vertex="1">
          <mxGeometry x="630" y="150" width="120" height="110" as="geometry" />
        </mxCell>
        <mxCell id="7g2inzhOpQmLJHESMsn7-1" value="&lt;b&gt;REVIEW&lt;/b&gt;&lt;div&gt;&lt;b&gt;SERVICES&lt;/b&gt;&lt;/div&gt;" style="rhombus;whiteSpace=wrap;html=1;fillColor=#fff2cc;gradientColor=#ffd966;strokeColor=#d6b656;rounded=1;" parent="1" vertex="1">
          <mxGeometry x="750" y="150" width="120" height="110" as="geometry" />
        </mxCell>
        <mxCell id="7g2inzhOpQmLJHESMsn7-70" value="Assets" style="childLayout=tableLayout;recursiveResize=0;strokeColor=#6C8EBF;fillColor=#dae8fc;shadow=1;rounded=0;align=center;verticalAlign=middle;fontFamily=Helvetica;fontSize=12;gradientColor=#7ea6e0;" parent="1" vertex="1">
          <mxGeometry x="35" y="320" width="105" height="111" as="geometry" />
        </mxCell>
        <mxCell id="7g2inzhOpQmLJHESMsn7-71" style="shape=tableRow;horizontal=0;startSize=0;swimlaneHead=0;swimlaneBody=0;top=0;left=0;bottom=0;right=0;dropTarget=0;collapsible=0;recursiveResize=0;expand=0;fontStyle=0;strokeColor=inherit;fillColor=#ffffff;rounded=0;align=center;verticalAlign=middle;fontFamily=Helvetica;fontSize=12;fontColor=default;" parent="7g2inzhOpQmLJHESMsn7-70" vertex="1">
          <mxGeometry width="105" height="24" as="geometry" />
        </mxCell>
        <mxCell id="7g2inzhOpQmLJHESMsn7-72" value="Send" style="connectable=0;recursiveResize=0;strokeColor=#36393d;fillColor=#cce5ff;align=center;fontStyle=1;html=1;rounded=0;verticalAlign=middle;fontFamily=Helvetica;fontSize=12;" parent="7g2inzhOpQmLJHESMsn7-71" vertex="1">
          <mxGeometry width="53" height="24" as="geometry">
            <mxRectangle width="53" height="24" as="alternateBounds" />
          </mxGeometry>
        </mxCell>
        <mxCell id="7g2inzhOpQmLJHESMsn7-73" value="&lt;font&gt;Recieve&lt;/font&gt;" style="connectable=0;recursiveResize=0;strokeColor=#36393d;fillColor=#cce5ff;align=center;fontStyle=1;html=1;rounded=0;verticalAlign=middle;fontFamily=Helvetica;fontSize=12;" parent="7g2inzhOpQmLJHESMsn7-71" vertex="1">
          <mxGeometry x="53" width="52" height="24" as="geometry">
            <mxRectangle width="52" height="24" as="alternateBounds" />
          </mxGeometry>
        </mxCell>
        <mxCell id="7g2inzhOpQmLJHESMsn7-75" value="" style="shape=tableRow;horizontal=0;startSize=0;swimlaneHead=0;swimlaneBody=0;top=0;left=0;bottom=0;right=0;dropTarget=0;collapsible=0;recursiveResize=0;expand=0;fontStyle=0;strokeColor=inherit;fillColor=#ffffff;rounded=0;align=center;verticalAlign=middle;fontFamily=Helvetica;fontSize=12;fontColor=default;" parent="7g2inzhOpQmLJHESMsn7-70" vertex="1">
          <mxGeometry y="24" width="105" height="21" as="geometry" />
        </mxCell>
        <mxCell id="7g2inzhOpQmLJHESMsn7-76" value="-" style="connectable=0;recursiveResize=0;strokeColor=#36393d;fillColor=#cce5ff;align=center;whiteSpace=wrap;html=1;rounded=0;verticalAlign=middle;fontFamily=Helvetica;fontSize=12;" parent="7g2inzhOpQmLJHESMsn7-75" vertex="1">
          <mxGeometry width="53" height="21" as="geometry">
            <mxRectangle width="53" height="21" as="alternateBounds" />
          </mxGeometry>
        </mxCell>
        <mxCell id="7g2inzhOpQmLJHESMsn7-77" value="Auth" style="connectable=0;recursiveResize=0;strokeColor=#36393d;fillColor=#cce5ff;align=center;whiteSpace=wrap;html=1;rounded=0;verticalAlign=middle;fontFamily=Helvetica;fontSize=12;" parent="7g2inzhOpQmLJHESMsn7-75" vertex="1">
          <mxGeometry x="53" width="52" height="21" as="geometry">
            <mxRectangle width="52" height="21" as="alternateBounds" />
          </mxGeometry>
        </mxCell>
        <mxCell id="7g2inzhOpQmLJHESMsn7-79" value="" style="shape=tableRow;horizontal=0;startSize=0;swimlaneHead=0;swimlaneBody=0;top=0;left=0;bottom=0;right=0;dropTarget=0;collapsible=0;recursiveResize=0;expand=0;fontStyle=1;strokeColor=inherit;fillColor=#EAF2D3;rounded=0;align=center;verticalAlign=middle;fontFamily=Helvetica;fontSize=12;fontColor=default;" parent="7g2inzhOpQmLJHESMsn7-70" vertex="1">
          <mxGeometry y="45" width="105" height="24" as="geometry" />
        </mxCell>
        <mxCell id="7g2inzhOpQmLJHESMsn7-80" value="-" style="connectable=0;recursiveResize=0;strokeColor=#36393d;fillColor=#cce5ff;whiteSpace=wrap;html=1;rounded=0;align=center;verticalAlign=middle;fontFamily=Helvetica;fontSize=12;" parent="7g2inzhOpQmLJHESMsn7-79" vertex="1">
          <mxGeometry width="53" height="24" as="geometry">
            <mxRectangle width="53" height="24" as="alternateBounds" />
          </mxGeometry>
        </mxCell>
        <mxCell id="7g2inzhOpQmLJHESMsn7-81" value="Order" style="connectable=0;recursiveResize=0;strokeColor=#36393d;fillColor=#cce5ff;whiteSpace=wrap;html=1;rounded=0;align=center;verticalAlign=middle;fontFamily=Helvetica;fontSize=12;" parent="7g2inzhOpQmLJHESMsn7-79" vertex="1">
          <mxGeometry x="53" width="52" height="24" as="geometry">
            <mxRectangle width="52" height="24" as="alternateBounds" />
          </mxGeometry>
        </mxCell>
        <mxCell id="7g2inzhOpQmLJHESMsn7-87" value="" style="shape=tableRow;horizontal=0;startSize=0;swimlaneHead=0;swimlaneBody=0;top=0;left=0;bottom=0;right=0;dropTarget=0;collapsible=0;recursiveResize=0;expand=0;fontStyle=1;strokeColor=inherit;fillColor=#EAF2D3;rounded=0;align=center;verticalAlign=middle;fontFamily=Helvetica;fontSize=12;fontColor=default;" parent="7g2inzhOpQmLJHESMsn7-70" vertex="1">
          <mxGeometry y="69" width="105" height="21" as="geometry" />
        </mxCell>
        <mxCell id="7g2inzhOpQmLJHESMsn7-88" value="-" style="connectable=0;recursiveResize=0;strokeColor=#36393d;fillColor=#cce5ff;whiteSpace=wrap;html=1;rounded=0;align=center;verticalAlign=middle;fontFamily=Helvetica;fontSize=12;" parent="7g2inzhOpQmLJHESMsn7-87" vertex="1">
          <mxGeometry width="53" height="21" as="geometry">
            <mxRectangle width="53" height="21" as="alternateBounds" />
          </mxGeometry>
        </mxCell>
        <mxCell id="7g2inzhOpQmLJHESMsn7-89" value="Chat" style="connectable=0;recursiveResize=0;strokeColor=#36393d;fillColor=#cce5ff;whiteSpace=wrap;html=1;rounded=0;align=center;verticalAlign=middle;fontFamily=Helvetica;fontSize=12;" parent="7g2inzhOpQmLJHESMsn7-87" vertex="1">
          <mxGeometry x="53" width="52" height="21" as="geometry">
            <mxRectangle width="52" height="21" as="alternateBounds" />
          </mxGeometry>
        </mxCell>
        <mxCell id="7g2inzhOpQmLJHESMsn7-91" style="shape=tableRow;horizontal=0;startSize=0;swimlaneHead=0;swimlaneBody=0;top=0;left=0;bottom=0;right=0;dropTarget=0;collapsible=0;recursiveResize=0;expand=0;fontStyle=1;strokeColor=inherit;fillColor=#EAF2D3;rounded=0;align=center;verticalAlign=middle;fontFamily=Helvetica;fontSize=12;fontColor=default;" parent="7g2inzhOpQmLJHESMsn7-70" vertex="1">
          <mxGeometry y="90" width="105" height="21" as="geometry" />
        </mxCell>
        <mxCell id="7g2inzhOpQmLJHESMsn7-92" value="-" style="connectable=0;recursiveResize=0;strokeColor=#36393d;fillColor=#cce5ff;whiteSpace=wrap;html=1;rounded=0;align=center;verticalAlign=middle;fontFamily=Helvetica;fontSize=12;" parent="7g2inzhOpQmLJHESMsn7-91" vertex="1">
          <mxGeometry width="53" height="21" as="geometry">
            <mxRectangle width="53" height="21" as="alternateBounds" />
          </mxGeometry>
        </mxCell>
        <mxCell id="7g2inzhOpQmLJHESMsn7-93" value="-" style="connectable=0;recursiveResize=0;strokeColor=#36393d;fillColor=#cce5ff;whiteSpace=wrap;html=1;rounded=0;align=center;verticalAlign=middle;fontFamily=Helvetica;fontSize=12;" parent="7g2inzhOpQmLJHESMsn7-91" vertex="1">
          <mxGeometry x="53" width="52" height="21" as="geometry">
            <mxRectangle width="52" height="21" as="alternateBounds" />
          </mxGeometry>
        </mxCell>
        <mxCell id="7g2inzhOpQmLJHESMsn7-142" value="Assets" style="childLayout=tableLayout;recursiveResize=0;strokeColor=#d79b00;fillColor=#ffe6cc;shadow=1;rounded=0;align=center;verticalAlign=middle;fontFamily=Helvetica;fontSize=12;" parent="1" vertex="1">
          <mxGeometry x="157.5" y="320" width="105" height="111" as="geometry" />
        </mxCell>
        <mxCell id="7g2inzhOpQmLJHESMsn7-143" style="shape=tableRow;horizontal=0;startSize=0;swimlaneHead=0;swimlaneBody=0;top=0;left=0;bottom=0;right=0;dropTarget=0;collapsible=0;recursiveResize=0;expand=0;fontStyle=0;strokeColor=inherit;fillColor=#ffffff;rounded=0;align=center;verticalAlign=middle;fontFamily=Helvetica;fontSize=12;fontColor=default;" parent="7g2inzhOpQmLJHESMsn7-142" vertex="1">
          <mxGeometry width="105" height="24" as="geometry" />
        </mxCell>
        <mxCell id="7g2inzhOpQmLJHESMsn7-144" value="Send" style="connectable=0;recursiveResize=0;strokeColor=#d79b00;fillColor=#ffe6cc;align=center;fontStyle=1;html=1;rounded=0;verticalAlign=middle;fontFamily=Helvetica;fontSize=12;" parent="7g2inzhOpQmLJHESMsn7-143" vertex="1">
          <mxGeometry width="53" height="24" as="geometry">
            <mxRectangle width="53" height="24" as="alternateBounds" />
          </mxGeometry>
        </mxCell>
        <mxCell id="7g2inzhOpQmLJHESMsn7-145" value="&lt;font&gt;Recieve&lt;/font&gt;" style="connectable=0;recursiveResize=0;strokeColor=#d79b00;fillColor=#ffe6cc;align=center;fontStyle=1;html=1;rounded=0;verticalAlign=middle;fontFamily=Helvetica;fontSize=12;" parent="7g2inzhOpQmLJHESMsn7-143" vertex="1">
          <mxGeometry x="53" width="52" height="24" as="geometry">
            <mxRectangle width="52" height="24" as="alternateBounds" />
          </mxGeometry>
        </mxCell>
        <mxCell id="7g2inzhOpQmLJHESMsn7-146" value="" style="shape=tableRow;horizontal=0;startSize=0;swimlaneHead=0;swimlaneBody=0;top=0;left=0;bottom=0;right=0;dropTarget=0;collapsible=0;recursiveResize=0;expand=0;fontStyle=0;strokeColor=inherit;fillColor=#ffffff;rounded=0;align=center;verticalAlign=middle;fontFamily=Helvetica;fontSize=12;fontColor=default;" parent="7g2inzhOpQmLJHESMsn7-142" vertex="1">
          <mxGeometry y="24" width="105" height="21" as="geometry" />
        </mxCell>
        <mxCell id="7g2inzhOpQmLJHESMsn7-147" value="Users" style="connectable=0;recursiveResize=0;strokeColor=#d79b00;fillColor=#ffe6cc;align=center;whiteSpace=wrap;html=1;rounded=0;verticalAlign=middle;fontFamily=Helvetica;fontSize=12;" parent="7g2inzhOpQmLJHESMsn7-146" vertex="1">
          <mxGeometry width="53" height="21" as="geometry">
            <mxRectangle width="53" height="21" as="alternateBounds" />
          </mxGeometry>
        </mxCell>
        <mxCell id="7g2inzhOpQmLJHESMsn7-148" value="-" style="connectable=0;recursiveResize=0;strokeColor=#d79b00;fillColor=#ffe6cc;align=center;whiteSpace=wrap;html=1;rounded=0;verticalAlign=middle;fontFamily=Helvetica;fontSize=12;" parent="7g2inzhOpQmLJHESMsn7-146" vertex="1">
          <mxGeometry x="53" width="52" height="21" as="geometry">
            <mxRectangle width="52" height="21" as="alternateBounds" />
          </mxGeometry>
        </mxCell>
        <mxCell id="7g2inzhOpQmLJHESMsn7-149" value="" style="shape=tableRow;horizontal=0;startSize=0;swimlaneHead=0;swimlaneBody=0;top=0;left=0;bottom=0;right=0;dropTarget=0;collapsible=0;recursiveResize=0;expand=0;fontStyle=1;strokeColor=inherit;fillColor=#EAF2D3;rounded=0;align=center;verticalAlign=middle;fontFamily=Helvetica;fontSize=12;fontColor=default;" parent="7g2inzhOpQmLJHESMsn7-142" vertex="1">
          <mxGeometry y="45" width="105" height="24" as="geometry" />
        </mxCell>
        <mxCell id="7g2inzhOpQmLJHESMsn7-150" value="Notifi.." style="connectable=0;recursiveResize=0;strokeColor=#d79b00;fillColor=#ffe6cc;whiteSpace=wrap;html=1;rounded=0;align=center;verticalAlign=middle;fontFamily=Helvetica;fontSize=12;" parent="7g2inzhOpQmLJHESMsn7-149" vertex="1">
          <mxGeometry width="53" height="24" as="geometry">
            <mxRectangle width="53" height="24" as="alternateBounds" />
          </mxGeometry>
        </mxCell>
        <mxCell id="7g2inzhOpQmLJHESMsn7-151" value="-" style="connectable=0;recursiveResize=0;strokeColor=#d79b00;fillColor=#ffe6cc;whiteSpace=wrap;html=1;rounded=0;align=center;verticalAlign=middle;fontFamily=Helvetica;fontSize=12;" parent="7g2inzhOpQmLJHESMsn7-149" vertex="1">
          <mxGeometry x="53" width="52" height="24" as="geometry">
            <mxRectangle width="52" height="24" as="alternateBounds" />
          </mxGeometry>
        </mxCell>
        <mxCell id="7g2inzhOpQmLJHESMsn7-152" value="" style="shape=tableRow;horizontal=0;startSize=0;swimlaneHead=0;swimlaneBody=0;top=0;left=0;bottom=0;right=0;dropTarget=0;collapsible=0;recursiveResize=0;expand=0;fontStyle=1;strokeColor=inherit;fillColor=#EAF2D3;rounded=0;align=center;verticalAlign=middle;fontFamily=Helvetica;fontSize=12;fontColor=default;" parent="7g2inzhOpQmLJHESMsn7-142" vertex="1">
          <mxGeometry y="69" width="105" height="21" as="geometry" />
        </mxCell>
        <mxCell id="7g2inzhOpQmLJHESMsn7-153" value="-" style="connectable=0;recursiveResize=0;strokeColor=#d79b00;fillColor=#ffe6cc;whiteSpace=wrap;html=1;rounded=0;align=center;verticalAlign=middle;fontFamily=Helvetica;fontSize=12;" parent="7g2inzhOpQmLJHESMsn7-152" vertex="1">
          <mxGeometry width="53" height="21" as="geometry">
            <mxRectangle width="53" height="21" as="alternateBounds" />
          </mxGeometry>
        </mxCell>
        <mxCell id="7g2inzhOpQmLJHESMsn7-154" value="-" style="connectable=0;recursiveResize=0;strokeColor=#d79b00;fillColor=#ffe6cc;whiteSpace=wrap;html=1;rounded=0;align=center;verticalAlign=middle;fontFamily=Helvetica;fontSize=12;" parent="7g2inzhOpQmLJHESMsn7-152" vertex="1">
          <mxGeometry x="53" width="52" height="21" as="geometry">
            <mxRectangle width="52" height="21" as="alternateBounds" />
          </mxGeometry>
        </mxCell>
        <mxCell id="7g2inzhOpQmLJHESMsn7-155" style="shape=tableRow;horizontal=0;startSize=0;swimlaneHead=0;swimlaneBody=0;top=0;left=0;bottom=0;right=0;dropTarget=0;collapsible=0;recursiveResize=0;expand=0;fontStyle=1;strokeColor=inherit;fillColor=#EAF2D3;rounded=0;align=center;verticalAlign=middle;fontFamily=Helvetica;fontSize=12;fontColor=default;" parent="7g2inzhOpQmLJHESMsn7-142" vertex="1">
          <mxGeometry y="90" width="105" height="21" as="geometry" />
        </mxCell>
        <mxCell id="7g2inzhOpQmLJHESMsn7-156" value="-" style="connectable=0;recursiveResize=0;strokeColor=#d79b00;fillColor=#ffe6cc;whiteSpace=wrap;html=1;rounded=0;align=center;verticalAlign=middle;fontFamily=Helvetica;fontSize=12;" parent="7g2inzhOpQmLJHESMsn7-155" vertex="1">
          <mxGeometry width="53" height="21" as="geometry">
            <mxRectangle width="53" height="21" as="alternateBounds" />
          </mxGeometry>
        </mxCell>
        <mxCell id="7g2inzhOpQmLJHESMsn7-157" value="-" style="connectable=0;recursiveResize=0;strokeColor=#d79b00;fillColor=#ffe6cc;whiteSpace=wrap;html=1;rounded=0;align=center;verticalAlign=middle;fontFamily=Helvetica;fontSize=12;" parent="7g2inzhOpQmLJHESMsn7-155" vertex="1">
          <mxGeometry x="53" width="52" height="21" as="geometry">
            <mxRectangle width="52" height="21" as="alternateBounds" />
          </mxGeometry>
        </mxCell>
        <mxCell id="7g2inzhOpQmLJHESMsn7-174" value="Assets" style="childLayout=tableLayout;recursiveResize=0;strokeColor=#6C8EBF;fillColor=#dae8fc;shadow=1;rounded=0;align=center;verticalAlign=middle;fontFamily=Helvetica;fontSize=12;gradientColor=#7ea6e0;" parent="1" vertex="1">
          <mxGeometry x="277.5" y="320" width="105" height="111" as="geometry" />
        </mxCell>
        <mxCell id="7g2inzhOpQmLJHESMsn7-175" style="shape=tableRow;horizontal=0;startSize=0;swimlaneHead=0;swimlaneBody=0;top=0;left=0;bottom=0;right=0;dropTarget=0;collapsible=0;recursiveResize=0;expand=0;fontStyle=0;strokeColor=inherit;fillColor=#ffffff;rounded=0;align=center;verticalAlign=middle;fontFamily=Helvetica;fontSize=12;fontColor=default;" parent="7g2inzhOpQmLJHESMsn7-174" vertex="1">
          <mxGeometry width="105" height="24" as="geometry" />
        </mxCell>
        <mxCell id="7g2inzhOpQmLJHESMsn7-176" value="Send" style="connectable=0;recursiveResize=0;strokeColor=#ae4132;fillColor=#fad9d5;align=center;fontStyle=1;html=1;rounded=0;verticalAlign=middle;fontFamily=Helvetica;fontSize=12;" parent="7g2inzhOpQmLJHESMsn7-175" vertex="1">
          <mxGeometry width="53" height="24" as="geometry">
            <mxRectangle width="53" height="24" as="alternateBounds" />
          </mxGeometry>
        </mxCell>
        <mxCell id="7g2inzhOpQmLJHESMsn7-177" value="&lt;font&gt;Recieve&lt;/font&gt;" style="connectable=0;recursiveResize=0;strokeColor=#ae4132;fillColor=#fad9d5;align=center;fontStyle=1;html=1;rounded=0;verticalAlign=middle;fontFamily=Helvetica;fontSize=12;" parent="7g2inzhOpQmLJHESMsn7-175" vertex="1">
          <mxGeometry x="53" width="52" height="24" as="geometry">
            <mxRectangle width="52" height="24" as="alternateBounds" />
          </mxGeometry>
        </mxCell>
        <mxCell id="7g2inzhOpQmLJHESMsn7-178" value="" style="shape=tableRow;horizontal=0;startSize=0;swimlaneHead=0;swimlaneBody=0;top=0;left=0;bottom=0;right=0;dropTarget=0;collapsible=0;recursiveResize=0;expand=0;fontStyle=0;strokeColor=inherit;fillColor=#ffffff;rounded=0;align=center;verticalAlign=middle;fontFamily=Helvetica;fontSize=12;fontColor=default;" parent="7g2inzhOpQmLJHESMsn7-174" vertex="1">
          <mxGeometry y="24" width="105" height="21" as="geometry" />
        </mxCell>
        <mxCell id="7g2inzhOpQmLJHESMsn7-179" value="Gig" style="connectable=0;recursiveResize=0;strokeColor=#ae4132;fillColor=#fad9d5;align=center;whiteSpace=wrap;html=1;rounded=0;verticalAlign=middle;fontFamily=Helvetica;fontSize=12;" parent="7g2inzhOpQmLJHESMsn7-178" vertex="1">
          <mxGeometry width="53" height="21" as="geometry">
            <mxRectangle width="53" height="21" as="alternateBounds" />
          </mxGeometry>
        </mxCell>
        <mxCell id="7g2inzhOpQmLJHESMsn7-180" value="Auth" style="connectable=0;recursiveResize=0;strokeColor=#ae4132;fillColor=#fad9d5;align=center;whiteSpace=wrap;html=1;rounded=0;verticalAlign=middle;fontFamily=Helvetica;fontSize=12;" parent="7g2inzhOpQmLJHESMsn7-178" vertex="1">
          <mxGeometry x="53" width="52" height="21" as="geometry">
            <mxRectangle width="52" height="21" as="alternateBounds" />
          </mxGeometry>
        </mxCell>
        <mxCell id="7g2inzhOpQmLJHESMsn7-181" value="" style="shape=tableRow;horizontal=0;startSize=0;swimlaneHead=0;swimlaneBody=0;top=0;left=0;bottom=0;right=0;dropTarget=0;collapsible=0;recursiveResize=0;expand=0;fontStyle=1;strokeColor=inherit;fillColor=#EAF2D3;rounded=0;align=center;verticalAlign=middle;fontFamily=Helvetica;fontSize=12;fontColor=default;" parent="7g2inzhOpQmLJHESMsn7-174" vertex="1">
          <mxGeometry y="45" width="105" height="24" as="geometry" />
        </mxCell>
        <mxCell id="7g2inzhOpQmLJHESMsn7-182" value="-" style="connectable=0;recursiveResize=0;strokeColor=#ae4132;fillColor=#fad9d5;whiteSpace=wrap;html=1;rounded=0;align=center;verticalAlign=middle;fontFamily=Helvetica;fontSize=12;" parent="7g2inzhOpQmLJHESMsn7-181" vertex="1">
          <mxGeometry width="53" height="24" as="geometry">
            <mxRectangle width="53" height="24" as="alternateBounds" />
          </mxGeometry>
        </mxCell>
        <mxCell id="7g2inzhOpQmLJHESMsn7-183" value="Order" style="connectable=0;recursiveResize=0;strokeColor=#ae4132;fillColor=#fad9d5;whiteSpace=wrap;html=1;rounded=0;align=center;verticalAlign=middle;fontFamily=Helvetica;fontSize=12;" parent="7g2inzhOpQmLJHESMsn7-181" vertex="1">
          <mxGeometry x="53" width="52" height="24" as="geometry">
            <mxRectangle width="52" height="24" as="alternateBounds" />
          </mxGeometry>
        </mxCell>
        <mxCell id="7g2inzhOpQmLJHESMsn7-184" value="" style="shape=tableRow;horizontal=0;startSize=0;swimlaneHead=0;swimlaneBody=0;top=0;left=0;bottom=0;right=0;dropTarget=0;collapsible=0;recursiveResize=0;expand=0;fontStyle=1;strokeColor=inherit;fillColor=#EAF2D3;rounded=0;align=center;verticalAlign=middle;fontFamily=Helvetica;fontSize=12;fontColor=default;" parent="7g2inzhOpQmLJHESMsn7-174" vertex="1">
          <mxGeometry y="69" width="105" height="21" as="geometry" />
        </mxCell>
        <mxCell id="7g2inzhOpQmLJHESMsn7-185" value="-" style="connectable=0;recursiveResize=0;strokeColor=#ae4132;fillColor=#fad9d5;whiteSpace=wrap;html=1;rounded=0;align=center;verticalAlign=middle;fontFamily=Helvetica;fontSize=12;" parent="7g2inzhOpQmLJHESMsn7-184" vertex="1">
          <mxGeometry width="53" height="21" as="geometry">
            <mxRectangle width="53" height="21" as="alternateBounds" />
          </mxGeometry>
        </mxCell>
        <mxCell id="7g2inzhOpQmLJHESMsn7-186" value="Gig" style="connectable=0;recursiveResize=0;strokeColor=#ae4132;fillColor=#fad9d5;whiteSpace=wrap;html=1;rounded=0;align=center;verticalAlign=middle;fontFamily=Helvetica;fontSize=12;" parent="7g2inzhOpQmLJHESMsn7-184" vertex="1">
          <mxGeometry x="53" width="52" height="21" as="geometry">
            <mxRectangle width="52" height="21" as="alternateBounds" />
          </mxGeometry>
        </mxCell>
        <mxCell id="7g2inzhOpQmLJHESMsn7-187" style="shape=tableRow;horizontal=0;startSize=0;swimlaneHead=0;swimlaneBody=0;top=0;left=0;bottom=0;right=0;dropTarget=0;collapsible=0;recursiveResize=0;expand=0;fontStyle=1;strokeColor=inherit;fillColor=#EAF2D3;rounded=0;align=center;verticalAlign=middle;fontFamily=Helvetica;fontSize=12;fontColor=default;" parent="7g2inzhOpQmLJHESMsn7-174" vertex="1">
          <mxGeometry y="90" width="105" height="21" as="geometry" />
        </mxCell>
        <mxCell id="7g2inzhOpQmLJHESMsn7-188" value="-" style="connectable=0;recursiveResize=0;strokeColor=#ae4132;fillColor=#fad9d5;whiteSpace=wrap;html=1;rounded=0;align=center;verticalAlign=middle;fontFamily=Helvetica;fontSize=12;" parent="7g2inzhOpQmLJHESMsn7-187" vertex="1">
          <mxGeometry width="53" height="21" as="geometry">
            <mxRectangle width="53" height="21" as="alternateBounds" />
          </mxGeometry>
        </mxCell>
        <mxCell id="7g2inzhOpQmLJHESMsn7-189" value="Review" style="connectable=0;recursiveResize=0;strokeColor=#ae4132;fillColor=#fad9d5;whiteSpace=wrap;html=1;rounded=0;align=center;verticalAlign=middle;fontFamily=Helvetica;fontSize=12;" parent="7g2inzhOpQmLJHESMsn7-187" vertex="1">
          <mxGeometry x="53" width="52" height="21" as="geometry">
            <mxRectangle width="52" height="21" as="alternateBounds" />
          </mxGeometry>
        </mxCell>
        <mxCell id="7g2inzhOpQmLJHESMsn7-190" value="Assets" style="childLayout=tableLayout;recursiveResize=0;strokeColor=#36393d;fillColor=#cdeb8b;shadow=1;rounded=0;align=center;verticalAlign=middle;fontFamily=Helvetica;fontSize=12;" parent="1" vertex="1">
          <mxGeometry x="397.5" y="320" width="105" height="111" as="geometry" />
        </mxCell>
        <mxCell id="7g2inzhOpQmLJHESMsn7-191" style="shape=tableRow;horizontal=0;startSize=0;swimlaneHead=0;swimlaneBody=0;top=0;left=0;bottom=0;right=0;dropTarget=0;collapsible=0;recursiveResize=0;expand=0;fontStyle=0;strokeColor=#36393d;fillColor=#cdeb8b;rounded=0;align=center;verticalAlign=middle;fontFamily=Helvetica;fontSize=12;" parent="7g2inzhOpQmLJHESMsn7-190" vertex="1">
          <mxGeometry width="105" height="24" as="geometry" />
        </mxCell>
        <mxCell id="7g2inzhOpQmLJHESMsn7-192" value="Send" style="connectable=0;recursiveResize=0;strokeColor=#82b366;fillColor=#d5e8d4;align=center;fontStyle=1;html=1;rounded=0;verticalAlign=middle;fontFamily=Helvetica;fontSize=12;gradientColor=#97d077;" parent="7g2inzhOpQmLJHESMsn7-191" vertex="1">
          <mxGeometry width="53" height="24" as="geometry">
            <mxRectangle width="53" height="24" as="alternateBounds" />
          </mxGeometry>
        </mxCell>
        <mxCell id="7g2inzhOpQmLJHESMsn7-193" value="&lt;font&gt;Recieve&lt;/font&gt;" style="connectable=0;recursiveResize=0;strokeColor=#82b366;fillColor=#d5e8d4;align=center;fontStyle=1;html=1;rounded=0;verticalAlign=middle;fontFamily=Helvetica;fontSize=12;gradientColor=#97d077;" parent="7g2inzhOpQmLJHESMsn7-191" vertex="1">
          <mxGeometry x="53" width="52" height="24" as="geometry">
            <mxRectangle width="52" height="24" as="alternateBounds" />
          </mxGeometry>
        </mxCell>
        <mxCell id="7g2inzhOpQmLJHESMsn7-194" value="" style="shape=tableRow;horizontal=0;startSize=0;swimlaneHead=0;swimlaneBody=0;top=0;left=0;bottom=0;right=0;dropTarget=0;collapsible=0;recursiveResize=0;expand=0;fontStyle=0;strokeColor=#36393d;fillColor=#cdeb8b;rounded=0;align=center;verticalAlign=middle;fontFamily=Helvetica;fontSize=12;" parent="7g2inzhOpQmLJHESMsn7-190" vertex="1">
          <mxGeometry y="24" width="105" height="21" as="geometry" />
        </mxCell>
        <mxCell id="7g2inzhOpQmLJHESMsn7-195" value="Users" style="connectable=0;recursiveResize=0;strokeColor=#82b366;fillColor=#d5e8d4;align=center;whiteSpace=wrap;html=1;rounded=0;verticalAlign=middle;fontFamily=Helvetica;fontSize=12;gradientColor=#97d077;" parent="7g2inzhOpQmLJHESMsn7-194" vertex="1">
          <mxGeometry width="53" height="21" as="geometry">
            <mxRectangle width="53" height="21" as="alternateBounds" />
          </mxGeometry>
        </mxCell>
        <mxCell id="7g2inzhOpQmLJHESMsn7-196" value="Users" style="connectable=0;recursiveResize=0;strokeColor=#82b366;fillColor=#d5e8d4;align=center;whiteSpace=wrap;html=1;rounded=0;verticalAlign=middle;fontFamily=Helvetica;fontSize=12;gradientColor=#97d077;" parent="7g2inzhOpQmLJHESMsn7-194" vertex="1">
          <mxGeometry x="53" width="52" height="21" as="geometry">
            <mxRectangle width="52" height="21" as="alternateBounds" />
          </mxGeometry>
        </mxCell>
        <mxCell id="7g2inzhOpQmLJHESMsn7-197" value="" style="shape=tableRow;horizontal=0;startSize=0;swimlaneHead=0;swimlaneBody=0;top=0;left=0;bottom=0;right=0;dropTarget=0;collapsible=0;recursiveResize=0;expand=0;fontStyle=1;strokeColor=#36393d;fillColor=#cdeb8b;rounded=0;align=center;verticalAlign=middle;fontFamily=Helvetica;fontSize=12;" parent="7g2inzhOpQmLJHESMsn7-190" vertex="1">
          <mxGeometry y="45" width="105" height="24" as="geometry" />
        </mxCell>
        <mxCell id="7g2inzhOpQmLJHESMsn7-198" value="-" style="connectable=0;recursiveResize=0;strokeColor=#82b366;fillColor=#d5e8d4;whiteSpace=wrap;html=1;rounded=0;align=center;verticalAlign=middle;fontFamily=Helvetica;fontSize=12;gradientColor=#97d077;" parent="7g2inzhOpQmLJHESMsn7-197" vertex="1">
          <mxGeometry width="53" height="24" as="geometry">
            <mxRectangle width="53" height="24" as="alternateBounds" />
          </mxGeometry>
        </mxCell>
        <mxCell id="7g2inzhOpQmLJHESMsn7-199" value="-" style="connectable=0;recursiveResize=0;strokeColor=#82b366;fillColor=#d5e8d4;whiteSpace=wrap;html=1;rounded=0;align=center;verticalAlign=middle;fontFamily=Helvetica;fontSize=12;gradientColor=#97d077;" parent="7g2inzhOpQmLJHESMsn7-197" vertex="1">
          <mxGeometry x="53" width="52" height="24" as="geometry">
            <mxRectangle width="52" height="24" as="alternateBounds" />
          </mxGeometry>
        </mxCell>
        <mxCell id="7g2inzhOpQmLJHESMsn7-200" value="" style="shape=tableRow;horizontal=0;startSize=0;swimlaneHead=0;swimlaneBody=0;top=0;left=0;bottom=0;right=0;dropTarget=0;collapsible=0;recursiveResize=0;expand=0;fontStyle=1;strokeColor=#36393d;fillColor=#cdeb8b;rounded=0;align=center;verticalAlign=middle;fontFamily=Helvetica;fontSize=12;" parent="7g2inzhOpQmLJHESMsn7-190" vertex="1">
          <mxGeometry y="69" width="105" height="21" as="geometry" />
        </mxCell>
        <mxCell id="7g2inzhOpQmLJHESMsn7-201" value="-" style="connectable=0;recursiveResize=0;strokeColor=#82b366;fillColor=#d5e8d4;whiteSpace=wrap;html=1;rounded=0;align=center;verticalAlign=middle;fontFamily=Helvetica;fontSize=12;gradientColor=#97d077;" parent="7g2inzhOpQmLJHESMsn7-200" vertex="1">
          <mxGeometry width="53" height="21" as="geometry">
            <mxRectangle width="53" height="21" as="alternateBounds" />
          </mxGeometry>
        </mxCell>
        <mxCell id="7g2inzhOpQmLJHESMsn7-202" value="-" style="connectable=0;recursiveResize=0;strokeColor=#82b366;fillColor=#d5e8d4;whiteSpace=wrap;html=1;rounded=0;align=center;verticalAlign=middle;fontFamily=Helvetica;fontSize=12;gradientColor=#97d077;" parent="7g2inzhOpQmLJHESMsn7-200" vertex="1">
          <mxGeometry x="53" width="52" height="21" as="geometry">
            <mxRectangle width="52" height="21" as="alternateBounds" />
          </mxGeometry>
        </mxCell>
        <mxCell id="7g2inzhOpQmLJHESMsn7-203" style="shape=tableRow;horizontal=0;startSize=0;swimlaneHead=0;swimlaneBody=0;top=0;left=0;bottom=0;right=0;dropTarget=0;collapsible=0;recursiveResize=0;expand=0;fontStyle=1;strokeColor=#36393d;fillColor=#cdeb8b;rounded=0;align=center;verticalAlign=middle;fontFamily=Helvetica;fontSize=12;" parent="7g2inzhOpQmLJHESMsn7-190" vertex="1">
          <mxGeometry y="90" width="105" height="21" as="geometry" />
        </mxCell>
        <mxCell id="7g2inzhOpQmLJHESMsn7-204" value="-" style="connectable=0;recursiveResize=0;strokeColor=#82b366;fillColor=#d5e8d4;whiteSpace=wrap;html=1;rounded=0;align=center;verticalAlign=middle;fontFamily=Helvetica;fontSize=12;gradientColor=#97d077;" parent="7g2inzhOpQmLJHESMsn7-203" vertex="1">
          <mxGeometry width="53" height="21" as="geometry">
            <mxRectangle width="53" height="21" as="alternateBounds" />
          </mxGeometry>
        </mxCell>
        <mxCell id="7g2inzhOpQmLJHESMsn7-205" value="-" style="connectable=0;recursiveResize=0;strokeColor=#82b366;fillColor=#d5e8d4;whiteSpace=wrap;html=1;rounded=0;align=center;verticalAlign=middle;fontFamily=Helvetica;fontSize=12;gradientColor=#97d077;" parent="7g2inzhOpQmLJHESMsn7-203" vertex="1">
          <mxGeometry x="53" width="52" height="21" as="geometry">
            <mxRectangle width="52" height="21" as="alternateBounds" />
          </mxGeometry>
        </mxCell>
        <mxCell id="7g2inzhOpQmLJHESMsn7-206" value="Assets" style="childLayout=tableLayout;recursiveResize=0;strokeColor=#d6b656;fillColor=#fff2cc;shadow=1;rounded=0;align=center;verticalAlign=middle;fontFamily=Helvetica;fontSize=12;gradientColor=#ffd966;" parent="1" vertex="1">
          <mxGeometry x="517.5" y="320" width="105" height="111" as="geometry" />
        </mxCell>
        <mxCell id="7g2inzhOpQmLJHESMsn7-207" style="shape=tableRow;horizontal=0;startSize=0;swimlaneHead=0;swimlaneBody=0;top=0;left=0;bottom=0;right=0;dropTarget=0;collapsible=0;recursiveResize=0;expand=0;fontStyle=0;strokeColor=inherit;fillColor=#ffffff;rounded=0;align=center;verticalAlign=middle;fontFamily=Helvetica;fontSize=12;fontColor=default;" parent="7g2inzhOpQmLJHESMsn7-206" vertex="1">
          <mxGeometry width="105" height="24" as="geometry" />
        </mxCell>
        <mxCell id="7g2inzhOpQmLJHESMsn7-208" value="Send" style="connectable=0;recursiveResize=0;strokeColor=#0e8088;fillColor=#b0e3e6;align=center;fontStyle=1;html=1;rounded=0;verticalAlign=middle;fontFamily=Helvetica;fontSize=12;" parent="7g2inzhOpQmLJHESMsn7-207" vertex="1">
          <mxGeometry width="53" height="24" as="geometry">
            <mxRectangle width="53" height="24" as="alternateBounds" />
          </mxGeometry>
        </mxCell>
        <mxCell id="7g2inzhOpQmLJHESMsn7-209" value="&lt;font&gt;Recieve&lt;/font&gt;" style="connectable=0;recursiveResize=0;strokeColor=#0e8088;fillColor=#b0e3e6;align=center;fontStyle=1;html=1;rounded=0;verticalAlign=middle;fontFamily=Helvetica;fontSize=12;" parent="7g2inzhOpQmLJHESMsn7-207" vertex="1">
          <mxGeometry x="53" width="52" height="24" as="geometry">
            <mxRectangle width="52" height="24" as="alternateBounds" />
          </mxGeometry>
        </mxCell>
        <mxCell id="7g2inzhOpQmLJHESMsn7-210" value="" style="shape=tableRow;horizontal=0;startSize=0;swimlaneHead=0;swimlaneBody=0;top=0;left=0;bottom=0;right=0;dropTarget=0;collapsible=0;recursiveResize=0;expand=0;fontStyle=0;strokeColor=inherit;fillColor=#ffffff;rounded=0;align=center;verticalAlign=middle;fontFamily=Helvetica;fontSize=12;fontColor=default;" parent="7g2inzhOpQmLJHESMsn7-206" vertex="1">
          <mxGeometry y="24" width="105" height="21" as="geometry" />
        </mxCell>
        <mxCell id="7g2inzhOpQmLJHESMsn7-211" value="Notifi.." style="connectable=0;recursiveResize=0;strokeColor=#0e8088;fillColor=#b0e3e6;align=center;whiteSpace=wrap;html=1;rounded=0;verticalAlign=middle;fontFamily=Helvetica;fontSize=12;" parent="7g2inzhOpQmLJHESMsn7-210" vertex="1">
          <mxGeometry width="53" height="21" as="geometry">
            <mxRectangle width="53" height="21" as="alternateBounds" />
          </mxGeometry>
        </mxCell>
        <mxCell id="7g2inzhOpQmLJHESMsn7-212" value="-" style="connectable=0;recursiveResize=0;strokeColor=#0e8088;fillColor=#b0e3e6;align=center;whiteSpace=wrap;html=1;rounded=0;verticalAlign=middle;fontFamily=Helvetica;fontSize=12;" parent="7g2inzhOpQmLJHESMsn7-210" vertex="1">
          <mxGeometry x="53" width="52" height="21" as="geometry">
            <mxRectangle width="52" height="21" as="alternateBounds" />
          </mxGeometry>
        </mxCell>
        <mxCell id="7g2inzhOpQmLJHESMsn7-213" value="" style="shape=tableRow;horizontal=0;startSize=0;swimlaneHead=0;swimlaneBody=0;top=0;left=0;bottom=0;right=0;dropTarget=0;collapsible=0;recursiveResize=0;expand=0;fontStyle=1;strokeColor=inherit;fillColor=#EAF2D3;rounded=0;align=center;verticalAlign=middle;fontFamily=Helvetica;fontSize=12;fontColor=default;" parent="7g2inzhOpQmLJHESMsn7-206" vertex="1">
          <mxGeometry y="45" width="105" height="24" as="geometry" />
        </mxCell>
        <mxCell id="7g2inzhOpQmLJHESMsn7-214" value="-" style="connectable=0;recursiveResize=0;strokeColor=#0e8088;fillColor=#b0e3e6;whiteSpace=wrap;html=1;rounded=0;align=center;verticalAlign=middle;fontFamily=Helvetica;fontSize=12;" parent="7g2inzhOpQmLJHESMsn7-213" vertex="1">
          <mxGeometry width="53" height="24" as="geometry">
            <mxRectangle width="53" height="24" as="alternateBounds" />
          </mxGeometry>
        </mxCell>
        <mxCell id="7g2inzhOpQmLJHESMsn7-215" value="-" style="connectable=0;recursiveResize=0;strokeColor=#0e8088;fillColor=#b0e3e6;whiteSpace=wrap;html=1;rounded=0;align=center;verticalAlign=middle;fontFamily=Helvetica;fontSize=12;" parent="7g2inzhOpQmLJHESMsn7-213" vertex="1">
          <mxGeometry x="53" width="52" height="24" as="geometry">
            <mxRectangle width="52" height="24" as="alternateBounds" />
          </mxGeometry>
        </mxCell>
        <mxCell id="7g2inzhOpQmLJHESMsn7-216" value="" style="shape=tableRow;horizontal=0;startSize=0;swimlaneHead=0;swimlaneBody=0;top=0;left=0;bottom=0;right=0;dropTarget=0;collapsible=0;recursiveResize=0;expand=0;fontStyle=1;strokeColor=inherit;fillColor=#EAF2D3;rounded=0;align=center;verticalAlign=middle;fontFamily=Helvetica;fontSize=12;fontColor=default;" parent="7g2inzhOpQmLJHESMsn7-206" vertex="1">
          <mxGeometry y="69" width="105" height="21" as="geometry" />
        </mxCell>
        <mxCell id="7g2inzhOpQmLJHESMsn7-217" value="-" style="connectable=0;recursiveResize=0;strokeColor=#0e8088;fillColor=#b0e3e6;whiteSpace=wrap;html=1;rounded=0;align=center;verticalAlign=middle;fontFamily=Helvetica;fontSize=12;" parent="7g2inzhOpQmLJHESMsn7-216" vertex="1">
          <mxGeometry width="53" height="21" as="geometry">
            <mxRectangle width="53" height="21" as="alternateBounds" />
          </mxGeometry>
        </mxCell>
        <mxCell id="7g2inzhOpQmLJHESMsn7-218" value="-" style="connectable=0;recursiveResize=0;strokeColor=#0e8088;fillColor=#b0e3e6;whiteSpace=wrap;html=1;rounded=0;align=center;verticalAlign=middle;fontFamily=Helvetica;fontSize=12;" parent="7g2inzhOpQmLJHESMsn7-216" vertex="1">
          <mxGeometry x="53" width="52" height="21" as="geometry">
            <mxRectangle width="52" height="21" as="alternateBounds" />
          </mxGeometry>
        </mxCell>
        <mxCell id="7g2inzhOpQmLJHESMsn7-219" style="shape=tableRow;horizontal=0;startSize=0;swimlaneHead=0;swimlaneBody=0;top=0;left=0;bottom=0;right=0;dropTarget=0;collapsible=0;recursiveResize=0;expand=0;fontStyle=1;strokeColor=inherit;fillColor=#EAF2D3;rounded=0;align=center;verticalAlign=middle;fontFamily=Helvetica;fontSize=12;fontColor=default;" parent="7g2inzhOpQmLJHESMsn7-206" vertex="1">
          <mxGeometry y="90" width="105" height="21" as="geometry" />
        </mxCell>
        <mxCell id="7g2inzhOpQmLJHESMsn7-220" value="-" style="connectable=0;recursiveResize=0;strokeColor=#0e8088;fillColor=#b0e3e6;whiteSpace=wrap;html=1;rounded=0;align=center;verticalAlign=middle;fontFamily=Helvetica;fontSize=12;" parent="7g2inzhOpQmLJHESMsn7-219" vertex="1">
          <mxGeometry width="53" height="21" as="geometry">
            <mxRectangle width="53" height="21" as="alternateBounds" />
          </mxGeometry>
        </mxCell>
        <mxCell id="7g2inzhOpQmLJHESMsn7-221" value="-" style="connectable=0;recursiveResize=0;strokeColor=#0e8088;fillColor=#b0e3e6;whiteSpace=wrap;html=1;rounded=0;align=center;verticalAlign=middle;fontFamily=Helvetica;fontSize=12;" parent="7g2inzhOpQmLJHESMsn7-219" vertex="1">
          <mxGeometry x="53" width="52" height="21" as="geometry">
            <mxRectangle width="52" height="21" as="alternateBounds" />
          </mxGeometry>
        </mxCell>
        <mxCell id="7g2inzhOpQmLJHESMsn7-222" value="Assets" style="childLayout=tableLayout;recursiveResize=0;strokeColor=#6C8EBF;fillColor=#dae8fc;shadow=1;rounded=0;align=center;verticalAlign=middle;fontFamily=Helvetica;fontSize=12;gradientColor=#7ea6e0;" parent="1" vertex="1">
          <mxGeometry x="637.5" y="320" width="105" height="111" as="geometry" />
        </mxCell>
        <mxCell id="7g2inzhOpQmLJHESMsn7-223" style="shape=tableRow;horizontal=0;startSize=0;swimlaneHead=0;swimlaneBody=0;top=0;left=0;bottom=0;right=0;dropTarget=0;collapsible=0;recursiveResize=0;expand=0;fontStyle=0;strokeColor=inherit;fillColor=#ffffff;rounded=0;align=center;verticalAlign=middle;fontFamily=Helvetica;fontSize=12;fontColor=default;" parent="7g2inzhOpQmLJHESMsn7-222" vertex="1">
          <mxGeometry width="105" height="24" as="geometry" />
        </mxCell>
        <mxCell id="7g2inzhOpQmLJHESMsn7-224" value="Send" style="connectable=0;recursiveResize=0;strokeColor=#b46504;fillColor=#fad7ac;align=center;fontStyle=1;html=1;rounded=0;verticalAlign=middle;fontFamily=Helvetica;fontSize=12;" parent="7g2inzhOpQmLJHESMsn7-223" vertex="1">
          <mxGeometry width="53" height="24" as="geometry">
            <mxRectangle width="53" height="24" as="alternateBounds" />
          </mxGeometry>
        </mxCell>
        <mxCell id="7g2inzhOpQmLJHESMsn7-225" value="&lt;font&gt;Recieve&lt;/font&gt;" style="connectable=0;recursiveResize=0;strokeColor=#b46504;fillColor=#fad7ac;align=center;fontStyle=1;html=1;rounded=0;verticalAlign=middle;fontFamily=Helvetica;fontSize=12;" parent="7g2inzhOpQmLJHESMsn7-223" vertex="1">
          <mxGeometry x="53" width="52" height="24" as="geometry">
            <mxRectangle width="52" height="24" as="alternateBounds" />
          </mxGeometry>
        </mxCell>
        <mxCell id="7g2inzhOpQmLJHESMsn7-226" value="" style="shape=tableRow;horizontal=0;startSize=0;swimlaneHead=0;swimlaneBody=0;top=0;left=0;bottom=0;right=0;dropTarget=0;collapsible=0;recursiveResize=0;expand=0;fontStyle=0;strokeColor=inherit;fillColor=#ffffff;rounded=0;align=center;verticalAlign=middle;fontFamily=Helvetica;fontSize=12;fontColor=default;" parent="7g2inzhOpQmLJHESMsn7-222" vertex="1">
          <mxGeometry y="24" width="105" height="21" as="geometry" />
        </mxCell>
        <mxCell id="7g2inzhOpQmLJHESMsn7-227" value="Users" style="connectable=0;recursiveResize=0;strokeColor=#b46504;fillColor=#fad7ac;align=center;whiteSpace=wrap;html=1;rounded=0;verticalAlign=middle;fontFamily=Helvetica;fontSize=12;" parent="7g2inzhOpQmLJHESMsn7-226" vertex="1">
          <mxGeometry width="53" height="21" as="geometry">
            <mxRectangle width="53" height="21" as="alternateBounds" />
          </mxGeometry>
        </mxCell>
        <mxCell id="7g2inzhOpQmLJHESMsn7-228" value="Review" style="connectable=0;recursiveResize=0;strokeColor=#b46504;fillColor=#fad7ac;align=center;whiteSpace=wrap;html=1;rounded=0;verticalAlign=middle;fontFamily=Helvetica;fontSize=12;" parent="7g2inzhOpQmLJHESMsn7-226" vertex="1">
          <mxGeometry x="53" width="52" height="21" as="geometry">
            <mxRectangle width="52" height="21" as="alternateBounds" />
          </mxGeometry>
        </mxCell>
        <mxCell id="7g2inzhOpQmLJHESMsn7-229" value="" style="shape=tableRow;horizontal=0;startSize=0;swimlaneHead=0;swimlaneBody=0;top=0;left=0;bottom=0;right=0;dropTarget=0;collapsible=0;recursiveResize=0;expand=0;fontStyle=1;strokeColor=inherit;fillColor=#EAF2D3;rounded=0;align=center;verticalAlign=middle;fontFamily=Helvetica;fontSize=12;fontColor=default;" parent="7g2inzhOpQmLJHESMsn7-222" vertex="1">
          <mxGeometry y="45" width="105" height="24" as="geometry" />
        </mxCell>
        <mxCell id="7g2inzhOpQmLJHESMsn7-230" value="Notifi.." style="connectable=0;recursiveResize=0;strokeColor=#b46504;fillColor=#fad7ac;whiteSpace=wrap;html=1;rounded=0;align=center;verticalAlign=middle;fontFamily=Helvetica;fontSize=12;" parent="7g2inzhOpQmLJHESMsn7-229" vertex="1">
          <mxGeometry width="53" height="24" as="geometry">
            <mxRectangle width="53" height="24" as="alternateBounds" />
          </mxGeometry>
        </mxCell>
        <mxCell id="7g2inzhOpQmLJHESMsn7-231" value="-" style="connectable=0;recursiveResize=0;strokeColor=#b46504;fillColor=#fad7ac;whiteSpace=wrap;html=1;rounded=0;align=center;verticalAlign=middle;fontFamily=Helvetica;fontSize=12;" parent="7g2inzhOpQmLJHESMsn7-229" vertex="1">
          <mxGeometry x="53" width="52" height="24" as="geometry">
            <mxRectangle width="52" height="24" as="alternateBounds" />
          </mxGeometry>
        </mxCell>
        <mxCell id="7g2inzhOpQmLJHESMsn7-232" value="" style="shape=tableRow;horizontal=0;startSize=0;swimlaneHead=0;swimlaneBody=0;top=0;left=0;bottom=0;right=0;dropTarget=0;collapsible=0;recursiveResize=0;expand=0;fontStyle=1;strokeColor=inherit;fillColor=#EAF2D3;rounded=0;align=center;verticalAlign=middle;fontFamily=Helvetica;fontSize=12;fontColor=default;" parent="7g2inzhOpQmLJHESMsn7-222" vertex="1">
          <mxGeometry y="69" width="105" height="21" as="geometry" />
        </mxCell>
        <mxCell id="7g2inzhOpQmLJHESMsn7-233" value="-" style="connectable=0;recursiveResize=0;strokeColor=#b46504;fillColor=#fad7ac;whiteSpace=wrap;html=1;rounded=0;align=center;verticalAlign=middle;fontFamily=Helvetica;fontSize=12;" parent="7g2inzhOpQmLJHESMsn7-232" vertex="1">
          <mxGeometry width="53" height="21" as="geometry">
            <mxRectangle width="53" height="21" as="alternateBounds" />
          </mxGeometry>
        </mxCell>
        <mxCell id="7g2inzhOpQmLJHESMsn7-234" value="-" style="connectable=0;recursiveResize=0;strokeColor=#b46504;fillColor=#fad7ac;whiteSpace=wrap;html=1;rounded=0;align=center;verticalAlign=middle;fontFamily=Helvetica;fontSize=12;" parent="7g2inzhOpQmLJHESMsn7-232" vertex="1">
          <mxGeometry x="53" width="52" height="21" as="geometry">
            <mxRectangle width="52" height="21" as="alternateBounds" />
          </mxGeometry>
        </mxCell>
        <mxCell id="7g2inzhOpQmLJHESMsn7-235" style="shape=tableRow;horizontal=0;startSize=0;swimlaneHead=0;swimlaneBody=0;top=0;left=0;bottom=0;right=0;dropTarget=0;collapsible=0;recursiveResize=0;expand=0;fontStyle=1;strokeColor=inherit;fillColor=#EAF2D3;rounded=0;align=center;verticalAlign=middle;fontFamily=Helvetica;fontSize=12;fontColor=default;" parent="7g2inzhOpQmLJHESMsn7-222" vertex="1">
          <mxGeometry y="90" width="105" height="21" as="geometry" />
        </mxCell>
        <mxCell id="7g2inzhOpQmLJHESMsn7-236" value="-" style="connectable=0;recursiveResize=0;strokeColor=#b46504;fillColor=#fad7ac;whiteSpace=wrap;html=1;rounded=0;align=center;verticalAlign=middle;fontFamily=Helvetica;fontSize=12;" parent="7g2inzhOpQmLJHESMsn7-235" vertex="1">
          <mxGeometry width="53" height="21" as="geometry">
            <mxRectangle width="53" height="21" as="alternateBounds" />
          </mxGeometry>
        </mxCell>
        <mxCell id="7g2inzhOpQmLJHESMsn7-237" value="-" style="connectable=0;recursiveResize=0;strokeColor=#b46504;fillColor=#fad7ac;whiteSpace=wrap;html=1;rounded=0;align=center;verticalAlign=middle;fontFamily=Helvetica;fontSize=12;" parent="7g2inzhOpQmLJHESMsn7-235" vertex="1">
          <mxGeometry x="53" width="52" height="21" as="geometry">
            <mxRectangle width="52" height="21" as="alternateBounds" />
          </mxGeometry>
        </mxCell>
        <mxCell id="7g2inzhOpQmLJHESMsn7-238" value="Assets" style="childLayout=tableLayout;recursiveResize=0;strokeColor=#6C8EBF;fillColor=#dae8fc;shadow=1;rounded=0;align=center;verticalAlign=middle;fontFamily=Helvetica;fontSize=12;gradientColor=#7ea6e0;" parent="1" vertex="1">
          <mxGeometry x="757.5" y="320" width="105" height="111" as="geometry" />
        </mxCell>
        <mxCell id="7g2inzhOpQmLJHESMsn7-239" style="shape=tableRow;horizontal=0;startSize=0;swimlaneHead=0;swimlaneBody=0;top=0;left=0;bottom=0;right=0;dropTarget=0;collapsible=0;recursiveResize=0;expand=0;fontStyle=0;strokeColor=inherit;fillColor=#ffffff;rounded=0;align=center;verticalAlign=middle;fontFamily=Helvetica;fontSize=12;fontColor=default;" parent="7g2inzhOpQmLJHESMsn7-238" vertex="1">
          <mxGeometry width="105" height="24" as="geometry" />
        </mxCell>
        <mxCell id="7g2inzhOpQmLJHESMsn7-240" value="Send" style="connectable=0;recursiveResize=0;strokeColor=#d6b656;fillColor=#fff2cc;align=center;fontStyle=1;html=1;rounded=0;verticalAlign=middle;fontFamily=Helvetica;fontSize=12;gradientColor=#ffd966;" parent="7g2inzhOpQmLJHESMsn7-239" vertex="1">
          <mxGeometry width="53" height="24" as="geometry">
            <mxRectangle width="53" height="24" as="alternateBounds" />
          </mxGeometry>
        </mxCell>
        <mxCell id="7g2inzhOpQmLJHESMsn7-241" value="&lt;font&gt;Recieve&lt;/font&gt;" style="connectable=0;recursiveResize=0;strokeColor=#d6b656;fillColor=#fff2cc;align=center;fontStyle=1;html=1;rounded=0;verticalAlign=middle;fontFamily=Helvetica;fontSize=12;gradientColor=#ffd966;" parent="7g2inzhOpQmLJHESMsn7-239" vertex="1">
          <mxGeometry x="53" width="52" height="24" as="geometry">
            <mxRectangle width="52" height="24" as="alternateBounds" />
          </mxGeometry>
        </mxCell>
        <mxCell id="7g2inzhOpQmLJHESMsn7-242" value="" style="shape=tableRow;horizontal=0;startSize=0;swimlaneHead=0;swimlaneBody=0;top=0;left=0;bottom=0;right=0;dropTarget=0;collapsible=0;recursiveResize=0;expand=0;fontStyle=0;strokeColor=inherit;fillColor=#ffffff;rounded=0;align=center;verticalAlign=middle;fontFamily=Helvetica;fontSize=12;fontColor=default;" parent="7g2inzhOpQmLJHESMsn7-238" vertex="1">
          <mxGeometry y="24" width="105" height="21" as="geometry" />
        </mxCell>
        <mxCell id="7g2inzhOpQmLJHESMsn7-243" value="Users" style="connectable=0;recursiveResize=0;strokeColor=#d6b656;fillColor=#fff2cc;align=center;whiteSpace=wrap;html=1;rounded=0;verticalAlign=middle;fontFamily=Helvetica;fontSize=12;gradientColor=#ffd966;" parent="7g2inzhOpQmLJHESMsn7-242" vertex="1">
          <mxGeometry width="53" height="21" as="geometry">
            <mxRectangle width="53" height="21" as="alternateBounds" />
          </mxGeometry>
        </mxCell>
        <mxCell id="7g2inzhOpQmLJHESMsn7-244" value="-" style="connectable=0;recursiveResize=0;strokeColor=#d6b656;fillColor=#fff2cc;align=center;whiteSpace=wrap;html=1;rounded=0;verticalAlign=middle;fontFamily=Helvetica;fontSize=12;gradientColor=#ffd966;" parent="7g2inzhOpQmLJHESMsn7-242" vertex="1">
          <mxGeometry x="53" width="52" height="21" as="geometry">
            <mxRectangle width="52" height="21" as="alternateBounds" />
          </mxGeometry>
        </mxCell>
        <mxCell id="7g2inzhOpQmLJHESMsn7-245" value="" style="shape=tableRow;horizontal=0;startSize=0;swimlaneHead=0;swimlaneBody=0;top=0;left=0;bottom=0;right=0;dropTarget=0;collapsible=0;recursiveResize=0;expand=0;fontStyle=1;strokeColor=inherit;fillColor=#EAF2D3;rounded=0;align=center;verticalAlign=middle;fontFamily=Helvetica;fontSize=12;fontColor=default;" parent="7g2inzhOpQmLJHESMsn7-238" vertex="1">
          <mxGeometry y="45" width="105" height="24" as="geometry" />
        </mxCell>
        <mxCell id="7g2inzhOpQmLJHESMsn7-246" value="Order" style="connectable=0;recursiveResize=0;strokeColor=#d6b656;fillColor=#fff2cc;whiteSpace=wrap;html=1;rounded=0;align=center;verticalAlign=middle;fontFamily=Helvetica;fontSize=12;gradientColor=#ffd966;" parent="7g2inzhOpQmLJHESMsn7-245" vertex="1">
          <mxGeometry width="53" height="24" as="geometry">
            <mxRectangle width="53" height="24" as="alternateBounds" />
          </mxGeometry>
        </mxCell>
        <mxCell id="7g2inzhOpQmLJHESMsn7-247" value="-" style="connectable=0;recursiveResize=0;strokeColor=#d6b656;fillColor=#fff2cc;whiteSpace=wrap;html=1;rounded=0;align=center;verticalAlign=middle;fontFamily=Helvetica;fontSize=12;gradientColor=#ffd966;" parent="7g2inzhOpQmLJHESMsn7-245" vertex="1">
          <mxGeometry x="53" width="52" height="24" as="geometry">
            <mxRectangle width="52" height="24" as="alternateBounds" />
          </mxGeometry>
        </mxCell>
        <mxCell id="7g2inzhOpQmLJHESMsn7-248" value="" style="shape=tableRow;horizontal=0;startSize=0;swimlaneHead=0;swimlaneBody=0;top=0;left=0;bottom=0;right=0;dropTarget=0;collapsible=0;recursiveResize=0;expand=0;fontStyle=1;strokeColor=inherit;fillColor=#EAF2D3;rounded=0;align=center;verticalAlign=middle;fontFamily=Helvetica;fontSize=12;fontColor=default;" parent="7g2inzhOpQmLJHESMsn7-238" vertex="1">
          <mxGeometry y="69" width="105" height="21" as="geometry" />
        </mxCell>
        <mxCell id="7g2inzhOpQmLJHESMsn7-249" value="-" style="connectable=0;recursiveResize=0;strokeColor=#d6b656;fillColor=#fff2cc;whiteSpace=wrap;html=1;rounded=0;align=center;verticalAlign=middle;fontFamily=Helvetica;fontSize=12;gradientColor=#ffd966;" parent="7g2inzhOpQmLJHESMsn7-248" vertex="1">
          <mxGeometry width="53" height="21" as="geometry">
            <mxRectangle width="53" height="21" as="alternateBounds" />
          </mxGeometry>
        </mxCell>
        <mxCell id="7g2inzhOpQmLJHESMsn7-250" value="-" style="connectable=0;recursiveResize=0;strokeColor=#d6b656;fillColor=#fff2cc;whiteSpace=wrap;html=1;rounded=0;align=center;verticalAlign=middle;fontFamily=Helvetica;fontSize=12;gradientColor=#ffd966;" parent="7g2inzhOpQmLJHESMsn7-248" vertex="1">
          <mxGeometry x="53" width="52" height="21" as="geometry">
            <mxRectangle width="52" height="21" as="alternateBounds" />
          </mxGeometry>
        </mxCell>
        <mxCell id="7g2inzhOpQmLJHESMsn7-251" style="shape=tableRow;horizontal=0;startSize=0;swimlaneHead=0;swimlaneBody=0;top=0;left=0;bottom=0;right=0;dropTarget=0;collapsible=0;recursiveResize=0;expand=0;fontStyle=1;strokeColor=inherit;fillColor=#EAF2D3;rounded=0;align=center;verticalAlign=middle;fontFamily=Helvetica;fontSize=12;fontColor=default;" parent="7g2inzhOpQmLJHESMsn7-238" vertex="1">
          <mxGeometry y="90" width="105" height="21" as="geometry" />
        </mxCell>
        <mxCell id="7g2inzhOpQmLJHESMsn7-252" value="-" style="connectable=0;recursiveResize=0;strokeColor=#d6b656;fillColor=#fff2cc;whiteSpace=wrap;html=1;rounded=0;align=center;verticalAlign=middle;fontFamily=Helvetica;fontSize=12;gradientColor=#ffd966;" parent="7g2inzhOpQmLJHESMsn7-251" vertex="1">
          <mxGeometry width="53" height="21" as="geometry">
            <mxRectangle width="53" height="21" as="alternateBounds" />
          </mxGeometry>
        </mxCell>
        <mxCell id="7g2inzhOpQmLJHESMsn7-253" value="-" style="connectable=0;recursiveResize=0;strokeColor=#d6b656;fillColor=#fff2cc;whiteSpace=wrap;html=1;rounded=0;align=center;verticalAlign=middle;fontFamily=Helvetica;fontSize=12;gradientColor=#ffd966;" parent="7g2inzhOpQmLJHESMsn7-251" vertex="1">
          <mxGeometry x="53" width="52" height="21" as="geometry">
            <mxRectangle width="52" height="21" as="alternateBounds" />
          </mxGeometry>
        </mxCell>
        <mxCell id="7g2inzhOpQmLJHESMsn7-254" value="Send = Producer" style="text;html=1;align=center;verticalAlign=middle;whiteSpace=wrap;rounded=0;fontFamily=Helvetica;fontSize=12;fontColor=default;" parent="1" vertex="1">
          <mxGeometry x="25" y="460" width="115" height="30" as="geometry" />
        </mxCell>
        <mxCell id="7g2inzhOpQmLJHESMsn7-255" value="Recieve = Consumer" style="text;html=1;align=center;verticalAlign=middle;whiteSpace=wrap;rounded=0;fontFamily=Helvetica;fontSize=12;fontColor=default;" parent="1" vertex="1">
          <mxGeometry x="35" y="480" width="115" height="30" as="geometry" />
        </mxCell>
      </root>
    </mxGraphModel>
  </diagram>
</mxfile>
